<svg id="SvgjsSvg1058" width="288" height="288" xmlns="http://www.w3.org/2000/svg" version="1.1" xmlns:xlink="http://www.w3.org/1999/xlink" xmlns:svgjs="http://svgjs.com/svgjs"><defs id="SvgjsDefs1059"></defs><g id="SvgjsG1060"><svg xmlns="http://www.w3.org/2000/svg" enable-background="new 0 0 32 32" viewBox="0 0 32 32" width="288" height="288"><path d="M16,2C8.3,2,2,8.3,2,16s6.3,14,14,14s14-6.3,14-14S23.7,2,16,2z M16,28C9.4,28,4,22.6,4,16S9.4,4,16,4s12,5.4,12,12
		S22.6,28,16,28z" fill="#ffffff" class="color000 svgShape"></path><path d="M16 23c-3.9 0-7-3.1-7-7 0-.6-.4-1-1-1s-1 .4-1 1c0 5 4 9 9 9 .6 0 1-.4 1-1S16.6 23 16 23zM16 7c-.6 0-1 .4-1 1s.4 1 1 1c3.9 0 7 3.1 7 7 0 .6.4 1 1 1s1-.4 1-1C25 11 21 7 16 7zM16 12c-2.2 0-4 1.8-4 4s1.8 4 4 4 4-1.8 4-4S18.2 12 16 12zM16 18c-1.1 0-2-.9-2-2s.9-2 2-2 2 .9 2 2S17.1 18 16 18z" fill="#ffffff" class="color000 svgShape"></path></svg></g></svg>