<svg id="SvgjsSvg1120" width="288" height="288" xmlns="http://www.w3.org/2000/svg" version="1.1" xmlns:xlink="http://www.w3.org/1999/xlink" xmlns:svgjs="http://svgjs.com/svgjs"><defs id="SvgjsDefs1121"></defs><g id="SvgjsG1122"><svg xmlns="http://www.w3.org/2000/svg" viewBox="0 0 30 30" width="288" height="288"><circle cx="15" cy="15" r="6" fill="#ffffff" class="color464646 svgShape"></circle><path fill="#ffffff" d="M15 6a1 1 0 0 1-1-1V3a1 1 0 0 1 2 0V5A1 1 0 0 1 15 6zM15 28a1 1 0 0 1-1-1V25a1 1 0 0 1 2 0v2A1 1 0 0 1 15 28zM5 16H3a1 1 0 0 1 0-2H5a1 1 0 0 1 0 2zM27 16H25a1 1 0 0 1 0-2h2a1 1 0 0 1 0 2zM6.51 24.49a1 1 0 0 1-.7-.3 1 1 0 0 1 0-1.41l1.41-1.42a1 1 0 0 1 1.42 1.42L7.22 24.19A1 1 0 0 1 6.51 24.49zM22.07 8.93a1 1 0 0 1-.71-.29 1 1 0 0 1 0-1.42l1.42-1.41a1 1 0 0 1 1.41 1.41L22.78 8.64A1 1 0 0 1 22.07 8.93zM23.49 24.49a1 1 0 0 1-.71-.3l-1.42-1.41a1 1 0 0 1 1.42-1.42l1.41 1.42a1 1 0 0 1 0 1.41A1 1 0 0 1 23.49 24.49zM7.93 8.93a1 1 0 0 1-.71-.29L5.81 7.22A1 1 0 0 1 7.22 5.81L8.64 7.22a1 1 0 0 1 0 1.42A1 1 0 0 1 7.93 8.93z" class="color464646 svgShape"></path></svg></g></svg>